<?xml version="1.0" encoding="UTF-8"?>
<svg id="Layer_2" data-name="Layer 2" xmlns="http://www.w3.org/2000/svg" version="1.1" viewBox="0 0 48 48">
  <defs>
    <style>
      .cls-1 {
        fill: #000;
      }

      .cls-1, .cls-2 {
        stroke-width: 0px;
      }

      .cls-2 {
        fill: #43e660;
      }
    </style>
  </defs>
  <g id="_--production" data-name="--production">
    <g id="logomark.square.gradient">
      <path id="background" class="cls-2" d="M48,11.3v25.5c0,6.2-5,11.3-11.3,11.3H11.3c-6.2,0-11.3-5-11.3-11.3V11.3C0,5,5,0,11.3,0h25.5c3.3,0,6.3,1.4,8.4,3.7.5.5.9,1.1,1.2,1.7.2.3.3.6.5.9.3.7.6,1.4.8,2.1,0,.4.2.8.2,1.1,0,.5.1,1.1.1,1.7Z"/>
    </g>
  </g>
  <path class="cls-1" d="M9.1,18.1h9.1l-6.5-6.1,3.6-3.6,6.1,6.3V5.7h5.3v8.9l6.1-6.3,3.6,3.6-6.5,6.1h9.1v5.1h-9.1l6.5,6.3-3.6,3.5-8.8-8.8-8.8,8.8-3.6-3.6,6.5-6.3h-9.1v-5h0ZM21.4,30.3h5.3v12h-5.3v-12Z"/>
</svg>