<?xml version="1.0" encoding="UTF-8"?>
<svg id="Layer_2" data-name="Layer 2" xmlns="http://www.w3.org/2000/svg" version="1.1" xmlns:xlink="http://www.w3.org/1999/xlink" viewBox="0 0 48 48">
  <defs>
    <style>
      .cls-1 {
        fill: url(#Sfumatura_senza_nome_3);
        fill-rule: evenodd;
      }

      .cls-1, .cls-2 {
        stroke-width: 0px;
      }

      .cls-2 {
        fill: #1a1b1e;
      }
    </style>
    <linearGradient id="Sfumatura_senza_nome_3" data-name="Sfumatura senza nome 3" x1="7.5" y1="12.7" x2="33.7" y2="33.9" gradientTransform="translate(0 50) scale(1 -1)" gradientUnits="userSpaceOnUse">
      <stop offset="0" stop-color="#00f0ff"/>
      <stop offset="1" stop-color="#99f9ff"/>
    </linearGradient>
  </defs>
  <g id="_--production" data-name="--production">
    <g id="logomark.square.gradient">
      <path id="background" class="cls-2" d="M48,11.3v25.5c0,6.2-5,11.3-11.3,11.3H11.3c-6.2,0-11.3-5-11.3-11.3V11.3C0,5,5,0,11.3,0h25.5c3.3,0,6.3,1.4,8.4,3.7.5.5.9,1.1,1.2,1.7.2.3.3.6.5.9.3.7.6,1.4.8,2.1,0,.4.2.8.2,1.1,0,.5.1,1.1.1,1.7Z"/>
    </g>
  </g>
  <path class="cls-1" d="M12.6,8.2C4.6,10.4-.1,18.6,2,26.6l2.6,9.7c2.1,7.7,11.9,10,17.1,4,2.6-3,6.7-4.2,10.5-3h.4c8,2.7,15.6-4.6,13.4-12.7l-.7-2.4-1.8-6.7c-2.1-8-10.4-12.7-18.4-10.6l-12.7,3.4ZM14.1,26.7c1.9-.7,2.8-2.8,2.1-4.7-.7-1.9-2.8-2.8-4.7-2.1-1.9.7-2.8,2.8-2.1,4.7.7,1.9,2.8,2.8,4.7,2.1ZM24.5,26.7c1.6-.4,2.6-2.1,2.2-3.7l-5.9,1.6c.4,1.6,2.1,2.6,3.7,2.2ZM31.1,12.9c-.7.2-1.1.9-.9,1.5v.3c.3.8-.2,1.7-1,1.9h-.3c-.7.3-1.1.9-.9,1.6.2.7.9,1.1,1.5.9h.3c.8-.3,1.7.2,1.9,1v.3c.3.7.9,1.1,1.6.9.7-.2,1.1-.9.9-1.5v-.3c-.3-.8.2-1.7,1-1.9h.3c.7-.3,1.1-.9.9-1.6-.2-.7-.9-1.1-1.5-.9h-.3c-.8.3-1.7-.2-1.9-1v-.3c-.3-.7-.9-1.1-1.6-.9Z"/>
</svg>