<?xml version="1.0" encoding="UTF-8"?>
<svg id="Layer_2" data-name="Layer 2" xmlns="http://www.w3.org/2000/svg" version="1.1" xmlns:xlink="http://www.w3.org/1999/xlink" viewBox="0 0 48 48">
  <defs>
    <style>
      .cls-1 {
        fill: url(#Sfumatura_senza_nome_3);
        fill-rule: evenodd;
      }

      .cls-1, .cls-2 {
        stroke-width: 0px;
      }

      .cls-2 {
        fill: #1a1b1e;
      }
    </style>
    <linearGradient id="Sfumatura_senza_nome_3" data-name="Sfumatura senza nome 3" x1="9.4" y1="14.2" x2="32.6" y2="33" gradientTransform="translate(0 50) scale(1 -1)" gradientUnits="userSpaceOnUse">
      <stop offset="0" stop-color="#00f0ff"/>
      <stop offset="1" stop-color="#99f9ff"/>
    </linearGradient>
  </defs>
  <g id="_--production" data-name="--production">
    <g id="logomark.square.gradient">
      <path id="background" class="cls-2" d="M48,11.3v25.5c0,6.2-5,11.3-11.3,11.3H11.3c-6.2,0-11.3-5-11.3-11.3V11.3C0,5,5,0,11.3,0h25.5c3.3,0,6.3,1.4,8.4,3.7.5.5.9,1.1,1.2,1.7.2.3.3.6.5.9.3.7.6,1.4.8,2.1,0,.4.2.8.2,1.1,0,.5.1,1.1.1,1.7Z"/>
    </g>
  </g>
  <path class="cls-1" d="M13.9,10c-7.1,1.9-11.3,9.2-9.4,16.3l2.3,8.6c1.8,6.9,10.6,8.9,15.2,3.5,2.3-2.7,6-3.7,9.4-2.6h.4c7.1,2.4,13.9-4.1,11.9-11.3l-.6-2.2-1.6-5.9c-1.9-7.1-9.2-11.3-16.3-9.4l-11.3,3ZM15.2,26.4c1.7-.6,2.5-2.5,1.9-4.1-.6-1.7-2.5-2.5-4.1-1.9-1.7.6-2.5,2.5-1.9,4.1.6,1.7,2.5,2.5,4.1,1.9ZM24.5,26.4c1.4-.4,2.3-1.9,1.9-3.3l-5.2,1.4c.4,1.4,1.9,2.3,3.3,1.9ZM30.3,14.1c-.6.2-.9.8-.8,1.4v.2c.3.7-.2,1.5-.9,1.7h-.2c-.6.2-.9.8-.8,1.4.2.6.8.9,1.4.8h.2c.7-.3,1.5.2,1.7.9v.2c.2.6.8.9,1.4.8.6-.2.9-.8.8-1.4v-.2c-.3-.7.2-1.5.9-1.7h.2c.6-.2.9-.8.8-1.4-.2-.6-.8-.9-1.4-.8h-.2c-.7.3-1.5-.2-1.7-.9v-.2c-.2-.6-.8-.9-1.4-.8Z"/>
</svg>