<?xml version="1.0" encoding="UTF-8"?>
<svg id="Layer_2" data-name="Layer 2" xmlns="http://www.w3.org/2000/svg" version="1.1" viewBox="0 0 48 48">
  <defs>
    <style>
      .cls-1 {
        fill: #000;
      }

      .cls-1, .cls-2 {
        stroke-width: 0px;
      }

      .cls-2 {
        fill: #fff;
      }
    </style>
  </defs>
  <g id="_--production" data-name="--production">
    <g id="logomark.square.gradient">
      <path id="background" class="cls-1" d="M48,11.3v25.5c0,6.2-5,11.3-11.3,11.3H11.3c-6.2,0-11.3-5-11.3-11.3V11.3C0,5,5,0,11.3,0h25.5c3.3,0,6.3,1.4,8.4,3.7.5.5.9,1.1,1.2,1.7.2.3.3.6.5.9.3.7.6,1.4.8,2.1,0,.4.2.8.2,1.1,0,.5.1,1.1.1,1.7Z"/>
    </g>
  </g>
  <path class="cls-2" d="M27.3,21.3l13-14.8h-3.1l-11.3,12.9-9-12.9H6.5l13.7,19.5-13.7,15.6h3.1l11.9-13.6,9.5,13.6h10.4M10.7,8.8h4.7l21.8,30.6h-4.7"/>
</svg>